# xmcd CD database file
#
# Track frame offsets:
#	150
#	11765
#	29752
#	40052
#	52630
#	68450
#	81725
#	98862
#	116052
#	134137
#
# Disc length: 1969 seconds
#
# Revision: 0
# Processed by: cddbd v1.5.2PL0 Copyright (c) Steve Scherf et al.
# Submitted via: CDex 1.70beta2
#
DISCID=8807af0a
DTITLE=New Arrival - Dreams
DYEAR=1995
DGENRE=Country
TTITLE0=Still Together
TTITLE1=I Was a Fool
TTITLE2=Turkey Testicle Festival
TTITLE3=Country, Blues and Rock and Roll
TTITLE4=What Am I
TTITLE5=The Two Of Us
TTITLE6=New Shoes
TTITLE7=Do You Know
TTITLE8=Taterman
TTITLE9=Green Green Grass of Home
EXTD=YEAR: 1995
EXTT0=
EXTT1=
EXTT2=
EXTT3=
EXTT4=
EXTT5=
EXTT6=
EXTT7=
EXTT8=
EXTT9=
PLAYORDER=
